<mxfile host="app.diagrams.net" modified="2023-07-21T04:40:33.964Z" agent="Mozilla/5.0 (Windows NT 10.0; Win64; x64) AppleWebKit/537.36 (KHTML, like Gecko) Chrome/114.0.0.0 Safari/537.36" etag="bcNMfD9Z61yeawcvEoI6" version="21.6.3" type="google">
  <diagram name="Page-1" id="dpnhuaNaRMRAQtIplrkO">
    <mxGraphModel grid="1" page="1" gridSize="10" guides="1" tooltips="1" connect="1" arrows="1" fold="1" pageScale="1" pageWidth="827" pageHeight="1169" math="0" shadow="0">
      <root>
        <mxCell id="0" />
        <mxCell id="1" parent="0" />
        <mxCell id="z8ApHOqLvtzKf69MEivw-1" value="&lt;b&gt;Start&lt;/b&gt;" style="ellipse;whiteSpace=wrap;html=1;aspect=fixed;" vertex="1" parent="1">
          <mxGeometry x="90" y="165" width="70" height="70" as="geometry" />
        </mxCell>
        <mxCell id="z8ApHOqLvtzKf69MEivw-2" value="&lt;b&gt;&lt;font style=&quot;font-size: 18px;&quot;&gt;User Flow Diagram&lt;/font&gt;&lt;/b&gt;" style="text;html=1;strokeColor=none;fillColor=none;align=center;verticalAlign=middle;whiteSpace=wrap;rounded=0;" vertex="1" parent="1">
          <mxGeometry x="270" y="30" width="176" height="30" as="geometry" />
        </mxCell>
        <mxCell id="z8ApHOqLvtzKf69MEivw-7" value="" style="endArrow=classic;html=1;rounded=0;" edge="1" parent="1">
          <mxGeometry width="50" height="50" relative="1" as="geometry">
            <mxPoint x="170" y="200" as="sourcePoint" />
            <mxPoint x="200" y="199.5" as="targetPoint" />
          </mxGeometry>
        </mxCell>
        <mxCell id="z8ApHOqLvtzKf69MEivw-8" value="&lt;b&gt;Dashboard&lt;/b&gt;" style="rounded=1;whiteSpace=wrap;html=1;" vertex="1" parent="1">
          <mxGeometry x="210" y="175" width="110" height="50" as="geometry" />
        </mxCell>
        <mxCell id="z8ApHOqLvtzKf69MEivw-9" value="" style="endArrow=classic;html=1;rounded=0;" edge="1" parent="1">
          <mxGeometry width="50" height="50" relative="1" as="geometry">
            <mxPoint x="330" y="200" as="sourcePoint" />
            <mxPoint x="360" y="199.5" as="targetPoint" />
            <Array as="points">
              <mxPoint x="360" y="200" />
            </Array>
          </mxGeometry>
        </mxCell>
        <mxCell id="z8ApHOqLvtzKf69MEivw-10" value="&lt;b&gt;Reservation&lt;/b&gt;" style="rounded=1;whiteSpace=wrap;html=1;" vertex="1" parent="1">
          <mxGeometry x="373" y="175" width="110" height="50" as="geometry" />
        </mxCell>
        <mxCell id="z8ApHOqLvtzKf69MEivw-20" style="edgeStyle=orthogonalEdgeStyle;rounded=0;orthogonalLoop=1;jettySize=auto;html=1;entryX=1;entryY=0.5;entryDx=0;entryDy=0;exitX=0.5;exitY=1;exitDx=0;exitDy=0;" edge="1" parent="1" source="z8ApHOqLvtzKf69MEivw-11" target="z8ApHOqLvtzKf69MEivw-19">
          <mxGeometry relative="1" as="geometry" />
        </mxCell>
        <mxCell id="z8ApHOqLvtzKf69MEivw-11" value="&lt;b&gt;Schedule Open&lt;/b&gt;" style="rhombus;whiteSpace=wrap;html=1;" vertex="1" parent="1">
          <mxGeometry x="530" y="160" width="80" height="80" as="geometry" />
        </mxCell>
        <mxCell id="z8ApHOqLvtzKf69MEivw-12" value="" style="endArrow=classic;dashed=1;html=1;dashPattern=1 3;strokeWidth=2;rounded=0;endFill=1;exitX=0.5;exitY=0;exitDx=0;exitDy=0;" edge="1" parent="1" source="z8ApHOqLvtzKf69MEivw-11">
          <mxGeometry width="50" height="50" relative="1" as="geometry">
            <mxPoint x="584.75" y="106" as="sourcePoint" />
            <mxPoint x="433" y="170" as="targetPoint" />
            <Array as="points">
              <mxPoint x="570" y="106" />
              <mxPoint x="432.75" y="106" />
            </Array>
          </mxGeometry>
        </mxCell>
        <mxCell id="z8ApHOqLvtzKf69MEivw-13" value="No" style="text;html=1;strokeColor=none;fillColor=none;align=center;verticalAlign=middle;whiteSpace=wrap;rounded=0;" vertex="1" parent="1">
          <mxGeometry x="470" y="70" width="60" height="30" as="geometry" />
        </mxCell>
        <mxCell id="z8ApHOqLvtzKf69MEivw-14" value="" style="endArrow=classic;html=1;rounded=0;" edge="1" parent="1">
          <mxGeometry width="50" height="50" relative="1" as="geometry">
            <mxPoint x="490" y="200" as="sourcePoint" />
            <mxPoint x="520" y="199.5" as="targetPoint" />
            <Array as="points">
              <mxPoint x="520" y="200" />
            </Array>
          </mxGeometry>
        </mxCell>
        <mxCell id="z8ApHOqLvtzKf69MEivw-19" value="&lt;b&gt;Room No&lt;/b&gt;" style="rounded=1;whiteSpace=wrap;html=1;" vertex="1" parent="1">
          <mxGeometry x="373" y="270" width="110" height="50" as="geometry" />
        </mxCell>
        <mxCell id="z8ApHOqLvtzKf69MEivw-21" value="&lt;b&gt;Payment Options&lt;/b&gt;" style="rounded=1;whiteSpace=wrap;html=1;" vertex="1" parent="1">
          <mxGeometry x="210" y="270" width="110" height="50" as="geometry" />
        </mxCell>
        <mxCell id="z8ApHOqLvtzKf69MEivw-23" value="" style="endArrow=classic;html=1;rounded=0;" edge="1" parent="1">
          <mxGeometry width="50" height="50" relative="1" as="geometry">
            <mxPoint x="360" y="294.5" as="sourcePoint" />
            <mxPoint x="330" y="294.5" as="targetPoint" />
          </mxGeometry>
        </mxCell>
        <mxCell id="z8ApHOqLvtzKf69MEivw-24" value="" style="endArrow=classic;html=1;rounded=0;" edge="1" parent="1">
          <mxGeometry width="50" height="50" relative="1" as="geometry">
            <mxPoint x="264.5" y="330" as="sourcePoint" />
            <mxPoint x="264.5" y="360" as="targetPoint" />
          </mxGeometry>
        </mxCell>
        <mxCell id="z8ApHOqLvtzKf69MEivw-25" value="&lt;b&gt;Reservation Confirmation&lt;/b&gt;" style="rounded=1;whiteSpace=wrap;html=1;" vertex="1" parent="1">
          <mxGeometry x="210" y="370" width="110" height="50" as="geometry" />
        </mxCell>
        <mxCell id="z8ApHOqLvtzKf69MEivw-27" value="&lt;b&gt;Sms Notification&lt;/b&gt;" style="rounded=1;whiteSpace=wrap;html=1;" vertex="1" parent="1">
          <mxGeometry x="373" y="370" width="110" height="50" as="geometry" />
        </mxCell>
        <mxCell id="z8ApHOqLvtzKf69MEivw-28" value="" style="endArrow=classic;html=1;rounded=0;" edge="1" parent="1">
          <mxGeometry width="50" height="50" relative="1" as="geometry">
            <mxPoint x="330" y="395" as="sourcePoint" />
            <mxPoint x="360" y="394.5" as="targetPoint" />
            <Array as="points">
              <mxPoint x="360" y="395" />
            </Array>
          </mxGeometry>
        </mxCell>
        <mxCell id="z8ApHOqLvtzKf69MEivw-29" value="" style="endArrow=classic;html=1;rounded=0;" edge="1" parent="1">
          <mxGeometry width="50" height="50" relative="1" as="geometry">
            <mxPoint x="500" y="395" as="sourcePoint" />
            <mxPoint x="530" y="394.5" as="targetPoint" />
            <Array as="points">
              <mxPoint x="530" y="395" />
            </Array>
          </mxGeometry>
        </mxCell>
        <mxCell id="z8ApHOqLvtzKf69MEivw-30" value="&lt;b&gt;Finish&lt;/b&gt;" style="ellipse;whiteSpace=wrap;html=1;aspect=fixed;" vertex="1" parent="1">
          <mxGeometry x="540" y="360" width="70" height="70" as="geometry" />
        </mxCell>
      </root>
    </mxGraphModel>
  </diagram>
</mxfile>
